<svg version="1.1" xmlns="http://www.w3.org/2000/svg" xmlns:xlink="http://www.w3.org/1999/xlink" width="1916" height="1252"><defs/><g><text fill="#eeeeee" stroke="none"  font-family="Arial" font-size="24px" font-style="normal" font-weight="normal" text-decoration="none" x="1800" y="1230">UNREGISTERED</text><g transform="translate(-14,-14) scale(1,1)"><rect fill="#C0C0C0" stroke="none" x="199" y="47" width="624" height="1216" opacity="0.2"/></g><g transform="translate(-14,-14) scale(1,1)"><rect fill="#ffffff" stroke="none" x="192" y="40" width="624" height="1216"/></g><g transform="translate(-14,-14) scale(1,1)"><path fill="none" stroke="#000000" d="M 192 40 L 816 40 L 816 1256 L 192 1256 L 192 40 Z Z" stroke-miterlimit="10"/></g><g transform="translate(-14,-14) scale(1,1)"><g><path fill="none" stroke="none"/><text fill="#000000" stroke="none" font-family="Arial" font-size="13px" font-style="normal" font-weight="bold" text-decoration="none" x="482.446533203125" y="59.5">Web UI</text></g></g><g transform="translate(-14,-14) scale(1,1)"><rect fill="#C0C0C0" stroke="none" x="1047" y="31" width="880" height="1208" opacity="0.2"/></g><g transform="translate(-14,-14) scale(1,1)"><rect fill="#ffffff" stroke="none" x="1040" y="24" width="880" height="1208"/></g><g transform="translate(-14,-14) scale(1,1)"><path fill="none" stroke="#000000" d="M 1040 24 L 1920 24 L 1920 1232 L 1040 1232 L 1040 24 Z Z" stroke-miterlimit="10"/></g><g transform="translate(-14,-14) scale(1,1)"><g><path fill="none" stroke="none"/><text fill="#000000" stroke="none" font-family="Arial" font-size="13px" font-style="normal" font-weight="bold" text-decoration="none" x="1402" y="43.5">网站后端及调度程序服务器</text></g></g><g transform="translate(-14,-14) scale(1,1)"><path fill="#ffffff" stroke="none" d="M 60.53418181818182 444.56 C 60.53418181818182 433.757309312 69.02546689861818 425 79.5 425 C 89.97453310138182 425 98.46581818181818 433.757309312 98.46581818181818 444.56 C 98.46581818181818 455.362690688 89.97453310138182 464.12 79.5 464.12 C 69.02546689861818 464.12 60.53418181818182 455.362690688 60.53418181818182 444.56 Z"/></g><g transform="translate(-14,-14) scale(1,1)"><path fill="none" stroke="#000000" d="M 60.53418181818182 444.56 C 60.53418181818182 433.757309312 69.02546689861818 425 79.5 425 C 89.97453310138182 425 98.46581818181818 433.757309312 98.46581818181818 444.56 C 98.46581818181818 455.362690688 89.97453310138182 464.12 79.5 464.12 C 69.02546689861818 464.12 60.53418181818182 455.362690688 60.53418181818182 444.56 Z" stroke-miterlimit="10"/></g><g transform="translate(-14,-14) scale(1,1)"><path fill="none" stroke="#000000" d="M 79.5 464.12 L 79.5 501.88" stroke-miterlimit="10"/></g><g transform="translate(-14,-14) scale(1,1)"><path fill="none" stroke="#000000" d="M 59.41854545454545 478.28 L 99.58145454545455 478.28" stroke-miterlimit="10"/></g><g transform="translate(-14,-14) scale(1,1)"><path fill="none" stroke="#000000" d="M 79.5 501.88 L 51.60909090909091 541" stroke-miterlimit="10"/></g><g transform="translate(-14,-14) scale(1,1)"><path fill="none" stroke="#000000" d="M 79.5 501.88 L 107.39090909090909 541" stroke-miterlimit="10"/></g><g transform="translate(-14,-14) scale(1,1)"><g><path fill="none" stroke="none"/><text fill="#000000" stroke="none" font-family="Arial" font-size="13px" font-style="normal" font-weight="bold" text-decoration="none" x="65.7763671875" y="561.5">User</text></g></g><g transform="translate(-14,-14) scale(1,1)"><path fill="#ffffff" stroke="none" d="M 910.0244866832387 941.9200000000001 C 910.0244866832387 930.3662019840001 919.0914521081114 921 930.276123046875 921 C 941.4607939856386 921 950.5277594105113 930.3662019840001 950.5277594105113 941.9200000000001 C 950.5277594105113 953.473798016 941.4607939856386 962.84 930.276123046875 962.84 C 919.0914521081114 962.84 910.0244866832387 953.473798016 910.0244866832387 941.9200000000001 Z"/></g><g transform="translate(-14,-14) scale(1,1)"><path fill="none" stroke="#000000" d="M 910.0244866832387 941.9200000000001 C 910.0244866832387 930.3662019840001 919.0914521081114 921 930.276123046875 921 C 941.4607939856386 921 950.5277594105113 930.3662019840001 950.5277594105113 941.9200000000001 C 950.5277594105113 953.473798016 941.4607939856386 962.84 930.276123046875 962.84 C 919.0914521081114 962.84 910.0244866832387 953.473798016 910.0244866832387 941.9200000000001 Z" stroke-miterlimit="10"/></g><g transform="translate(-14,-14) scale(1,1)"><path fill="none" stroke="#000000" d="M 930.276123046875 962.84 L 930.276123046875 1003.16" stroke-miterlimit="10"/></g><g transform="translate(-14,-14) scale(1,1)"><path fill="none" stroke="#000000" d="M 908.8332139559659 977.96 L 951.7190321377841 977.96" stroke-miterlimit="10"/></g><g transform="translate(-14,-14) scale(1,1)"><path fill="none" stroke="#000000" d="M 930.276123046875 1003.16 L 900.4943048650568 1045" stroke-miterlimit="10"/></g><g transform="translate(-14,-14) scale(1,1)"><path fill="none" stroke="#000000" d="M 930.276123046875 1003.16 L 960.0579412286932 1045" stroke-miterlimit="10"/></g><g transform="translate(-14,-14) scale(1,1)"><g><path fill="none" stroke="none"/><text fill="#000000" stroke="none" font-family="Arial" font-size="13px" font-style="normal" font-weight="bold" text-decoration="none" x="891.987060546875" y="1065.5">Administrator</text></g></g><g transform="translate(-14,-14) scale(1,1)"><path fill="#C0C0C0" stroke="none" d="M 415 326.5 C 415 309.1030288 445.220776 295 482.5 295 C 519.779224 295 550 309.1030288 550 326.5 C 550 343.8969712 519.779224 358 482.5 358 C 445.220776 358 415 343.8969712 415 326.5 Z" opacity="0.2"/></g><g transform="translate(-14,-14) scale(1,1)"><path fill="#ffffff" stroke="none" d="M 408 319.5 C 408 302.1030288 438.220776 288 475.5 288 C 512.779224 288 543 302.1030288 543 319.5 C 543 336.8969712 512.779224 351 475.5 351 C 438.220776 351 408 336.8969712 408 319.5 Z"/></g><g transform="translate(-14,-14) scale(1,1)"><path fill="none" stroke="#000000" d="M 408 319.5 C 408 302.1030288 438.220776 288 475.5 288 C 512.779224 288 543 302.1030288 543 319.5 C 543 336.8969712 512.779224 351 475.5 351 C 438.220776 351 408 336.8969712 408 319.5 Z" stroke-miterlimit="10"/></g><g transform="translate(-14,-14) scale(1,1)"><g><path fill="none" stroke="none"/><text fill="#000000" stroke="none" font-family="Arial" font-size="13px" font-style="normal" font-weight="bold" text-decoration="none" x="436.5" y="326.5">添加爬虫任务</text></g></g><g transform="translate(-14,-14) scale(1,1)"><path fill="#C0C0C0" stroke="none" d="M 631 522.5 C 631 507.312168 663.2354944 495 703 495 C 742.7645056 495 775 507.312168 775 522.5 C 775 537.687832 742.7645056 550 703 550 C 663.2354944 550 631 537.687832 631 522.5 Z" opacity="0.2"/></g><g transform="translate(-14,-14) scale(1,1)"><path fill="#ffffff" stroke="none" d="M 624 515.5 C 624 500.312168 656.2354944 488 696 488 C 735.7645056 488 768 500.312168 768 515.5 C 768 530.687832 735.7645056 543 696 543 C 656.2354944 543 624 530.687832 624 515.5 Z"/></g><g transform="translate(-14,-14) scale(1,1)"><path fill="none" stroke="#000000" d="M 624 515.5 C 624 500.312168 656.2354944 488 696 488 C 735.7645056 488 768 500.312168 768 515.5 C 768 530.687832 735.7645056 543 696 543 C 656.2354944 543 624 530.687832 624 515.5 Z" stroke-miterlimit="10"/></g><g transform="translate(-14,-14) scale(1,1)"><g><path fill="none" stroke="none"/><text fill="#000000" stroke="none" font-family="Arial" font-size="13px" font-style="normal" font-weight="bold" text-decoration="none" x="657" y="522.5">启动爬虫任务</text></g></g><g transform="translate(-14,-14) scale(1,1)"><path fill="#C0C0C0" stroke="none" d="M 287 199 C 287 181.3268864 314.5344848 167 348.5 167 C 382.4655152 167 410 181.3268864 410 199 C 410 216.6731136 382.4655152 231 348.5 231 C 314.5344848 231 287 216.6731136 287 199 Z" opacity="0.2"/></g><g transform="translate(-14,-14) scale(1,1)"><path fill="#ffffff" stroke="none" d="M 280 192 C 280 174.3268864 307.5344848 160 341.5 160 C 375.4655152 160 403 174.3268864 403 192 C 403 209.6731136 375.4655152 224 341.5 224 C 307.5344848 224 280 209.6731136 280 192 Z"/></g><g transform="translate(-14,-14) scale(1,1)"><path fill="none" stroke="#000000" d="M 280 192 C 280 174.3268864 307.5344848 160 341.5 160 C 375.4655152 160 403 174.3268864 403 192 C 403 209.6731136 375.4655152 224 341.5 224 C 307.5344848 224 280 209.6731136 280 192 Z" stroke-miterlimit="10"/></g><g transform="translate(-14,-14) scale(1,1)"><g><path fill="none" stroke="none"/><text fill="#000000" stroke="none" font-family="Arial" font-size="13px" font-style="normal" font-weight="bold" text-decoration="none" x="302.5" y="199">浏览爬虫列表</text></g></g><g transform="translate(-14,-14) scale(1,1)"><path fill="#C0C0C0" stroke="none" d="M 511 443 C 511 427.5360256 538.5344848 415 572.5 415 C 606.4655152 415 634 427.5360256 634 443 C 634 458.4639744 606.4655152 471 572.5 471 C 538.5344848 471 511 458.4639744 511 443 Z" opacity="0.2"/></g><g transform="translate(-14,-14) scale(1,1)"><path fill="#ffffff" stroke="none" d="M 504 436 C 504 420.5360256 531.5344848 408 565.5 408 C 599.4655152 408 627 420.5360256 627 436 C 627 451.4639744 599.4655152 464 565.5 464 C 531.5344848 464 504 451.4639744 504 436 Z"/></g><g transform="translate(-14,-14) scale(1,1)"><path fill="none" stroke="#000000" d="M 504 436 C 504 420.5360256 531.5344848 408 565.5 408 C 599.4655152 408 627 420.5360256 627 436 C 627 451.4639744 599.4655152 464 565.5 464 C 531.5344848 464 504 451.4639744 504 436 Z" stroke-miterlimit="10"/></g><g transform="translate(-14,-14) scale(1,1)"><g><path fill="none" stroke="none"/><text fill="#000000" stroke="none" font-family="Arial" font-size="13px" font-style="normal" font-weight="bold" text-decoration="none" x="526.5" y="443">查看爬虫进度</text></g></g><g transform="translate(-14,-14) scale(1,1)"><path fill="none" stroke="#000000" d="M 136 429 L 312 225" stroke-miterlimit="10"/></g><g transform="translate(-14,-14) scale(1,1)"><path fill="none" stroke="#000000" d="M 308.54866750309515 235.44453464716398 L 312 225 L 302.1741381119616 229.9449406626566" stroke-miterlimit="10"/></g><g transform="translate(-14,-14) scale(1,1)"><path fill="#C0C0C0" stroke="none" d="M 391 806.5 C 391 793.5213072 419.4299152 783 454.5 783 C 489.5700848 783 518 793.5213072 518 806.5 C 518 819.4786928 489.5700848 830 454.5 830 C 419.4299152 830 391 819.4786928 391 806.5 Z" opacity="0.2"/></g><g transform="translate(-14,-14) scale(1,1)"><path fill="#ffffff" stroke="none" d="M 384 799.5 C 384 786.5213072 412.4299152 776 447.5 776 C 482.5700848 776 511 786.5213072 511 799.5 C 511 812.4786928 482.5700848 823 447.5 823 C 412.4299152 823 384 812.4786928 384 799.5 Z"/></g><g transform="translate(-14,-14) scale(1,1)"><path fill="none" stroke="#000000" d="M 384 799.5 C 384 786.5213072 412.4299152 776 447.5 776 C 482.5700848 776 511 786.5213072 511 799.5 C 511 812.4786928 482.5700848 823 447.5 823 C 412.4299152 823 384 812.4786928 384 799.5 Z" stroke-miterlimit="10"/></g><g transform="translate(-14,-14) scale(1,1)"><g><path fill="none" stroke="none"/><text fill="#000000" stroke="none" font-family="Arial" font-size="13px" font-style="normal" font-weight="bold" text-decoration="none" x="408.5" y="806.5">查询爬虫结果</text></g></g><g transform="translate(-14,-14) scale(1,1)"><path fill="#C0C0C0" stroke="none" d="M 599 1002.5 C 599 982.8938896 627.4299152 967 662.5 967 C 697.5700848 967 726 982.8938896 726 1002.5 C 726 1022.1061104 697.5700848 1038 662.5 1038 C 627.4299152 1038 599 1022.1061104 599 1002.5 Z" opacity="0.2"/></g><g transform="translate(-14,-14) scale(1,1)"><path fill="#ffffff" stroke="none" d="M 592 995.5 C 592 975.8938896 620.4299152 960 655.5 960 C 690.5700848 960 719 975.8938896 719 995.5 C 719 1015.1061104 690.5700848 1031 655.5 1031 C 620.4299152 1031 592 1015.1061104 592 995.5 Z"/></g><g transform="translate(-14,-14) scale(1,1)"><path fill="none" stroke="#000000" d="M 592 995.5 C 592 975.8938896 620.4299152 960 655.5 960 C 690.5700848 960 719 975.8938896 719 995.5 C 719 1015.1061104 690.5700848 1031 655.5 1031 C 620.4299152 1031 592 1015.1061104 592 995.5 Z" stroke-miterlimit="10"/></g><g transform="translate(-14,-14) scale(1,1)"><g><path fill="none" stroke="none"/><text fill="#000000" stroke="none" font-family="Arial" font-size="13px" font-style="normal" font-weight="bold" text-decoration="none" x="616.5" y="1002.5">管理爬虫模板</text></g></g><g transform="translate(-14,-14) scale(1,1)"><path fill="none" stroke="#000000" d="M 879 995 L 720 995" stroke-miterlimit="10"/></g><g transform="translate(-14,-14) scale(1,1)"><path fill="none" stroke="#000000" d="M 730.1626748576241 990.790482243984 L 720 995 L 730.1626748576241 999.209517756016" stroke-miterlimit="10"/></g><g transform="translate(-14,-14) scale(1,1)"><path fill="#C0C0C0" stroke="none" d="M 415 682.5 C 415 667.312168 450.5933584 655 494.5 655 C 538.4066416000001 655 574 667.312168 574 682.5 C 574 697.687832 538.4066416000001 710 494.5 710 C 450.5933584 710 415 697.687832 415 682.5 Z" opacity="0.2"/></g><g transform="translate(-14,-14) scale(1,1)"><path fill="#ffffff" stroke="none" d="M 408 675.5 C 408 660.312168 443.5933584 648 487.5 648 C 531.4066416000001 648 567 660.312168 567 675.5 C 567 690.687832 531.4066416000001 703 487.5 703 C 443.5933584 703 408 690.687832 408 675.5 Z"/></g><g transform="translate(-14,-14) scale(1,1)"><path fill="none" stroke="#000000" d="M 408 675.5 C 408 660.312168 443.5933584 648 487.5 648 C 531.4066416000001 648 567 660.312168 567 675.5 C 567 690.687832 531.4066416000001 703 487.5 703 C 443.5933584 703 408 690.687832 408 675.5 Z" stroke-miterlimit="10"/></g><g transform="translate(-14,-14) scale(1,1)"><g><path fill="none" stroke="none"/><text fill="#000000" stroke="none" font-family="Arial" font-size="13px" font-style="normal" font-weight="bold" text-decoration="none" x="448.5" y="682.5">终止爬虫任务</text></g></g><g transform="translate(-14,-14) scale(1,1)"><path fill="#C0C0C0" stroke="none" d="M 383 1174.5 C 383 1157.1030288 410.5344848 1143 444.5 1143 C 478.4655152 1143 506 1157.1030288 506 1174.5 C 506 1191.8969712 478.4655152 1206 444.5 1206 C 410.5344848 1206 383 1191.8969712 383 1174.5 Z" opacity="0.2"/></g><g transform="translate(-14,-14) scale(1,1)"><path fill="#ffffff" stroke="none" d="M 376 1167.5 C 376 1150.1030288 403.5344848 1136 437.5 1136 C 471.4655152 1136 499 1150.1030288 499 1167.5 C 499 1184.8969712 471.4655152 1199 437.5 1199 C 403.5344848 1199 376 1184.8969712 376 1167.5 Z"/></g><g transform="translate(-14,-14) scale(1,1)"><path fill="none" stroke="#000000" d="M 376 1167.5 C 376 1150.1030288 403.5344848 1136 437.5 1136 C 471.4655152 1136 499 1150.1030288 499 1167.5 C 499 1184.8969712 471.4655152 1199 437.5 1199 C 403.5344848 1199 376 1184.8969712 376 1167.5 Z" stroke-miterlimit="10"/></g><g transform="translate(-14,-14) scale(1,1)"><g><path fill="none" stroke="none"/><text fill="#000000" stroke="none" font-family="Arial" font-size="13px" font-style="normal" font-weight="bold" text-decoration="none" x="398.5" y="1174.5">添加爬虫模板</text></g></g><g transform="translate(-14,-14) scale(1,1)"><path fill="#C0C0C0" stroke="none" d="M 239 930.5 C 239 915.312168 266.5344848 903 300.5 903 C 334.4655152 903 362 915.312168 362 930.5 C 362 945.687832 334.4655152 958 300.5 958 C 266.5344848 958 239 945.687832 239 930.5 Z" opacity="0.2"/></g><g transform="translate(-14,-14) scale(1,1)"><path fill="#ffffff" stroke="none" d="M 232 923.5 C 232 908.312168 259.5344848 896 293.5 896 C 327.4655152 896 355 908.312168 355 923.5 C 355 938.687832 327.4655152 951 293.5 951 C 259.5344848 951 232 938.687832 232 923.5 Z"/></g><g transform="translate(-14,-14) scale(1,1)"><path fill="none" stroke="#000000" d="M 232 923.5 C 232 908.312168 259.5344848 896 293.5 896 C 327.4655152 896 355 908.312168 355 923.5 C 355 938.687832 327.4655152 951 293.5 951 C 259.5344848 951 232 938.687832 232 923.5 Z" stroke-miterlimit="10"/></g><g transform="translate(-14,-14) scale(1,1)"><g><path fill="none" stroke="none"/><text fill="#000000" stroke="none" font-family="Arial" font-size="13px" font-style="normal" font-weight="bold" text-decoration="none" x="254.5" y="930.5">删除爬虫模板</text></g></g><g transform="translate(-14,-14) scale(1,1)"><path fill="#C0C0C0" stroke="none" d="M 647 375 C 647 361.7451648 674.5344848 351 708.5 351 C 742.4655152 351 770 361.7451648 770 375 C 770 388.2548352 742.4655152 399 708.5 399 C 674.5344848 399 647 388.2548352 647 375 Z" opacity="0.2"/></g><g transform="translate(-14,-14) scale(1,1)"><path fill="#ffffff" stroke="none" d="M 640 368 C 640 354.7451648 667.5344848 344 701.5 344 C 735.4655152 344 763 354.7451648 763 368 C 763 381.2548352 735.4655152 392 701.5 392 C 667.5344848 392 640 381.2548352 640 368 Z"/></g><g transform="translate(-14,-14) scale(1,1)"><path fill="none" stroke="#000000" d="M 640 368 C 640 354.7451648 667.5344848 344 701.5 344 C 735.4655152 344 763 354.7451648 763 368 C 763 381.2548352 735.4655152 392 701.5 392 C 667.5344848 392 640 381.2548352 640 368 Z" stroke-miterlimit="10"/></g><g transform="translate(-14,-14) scale(1,1)"><g><path fill="none" stroke="none"/><text fill="#000000" stroke="none" font-family="Arial" font-size="13px" font-style="normal" font-weight="bold" text-decoration="none" x="662.5" y="375">配置爬虫方案</text></g></g><g transform="translate(-14,-14) scale(1,1)"><path fill="#C0C0C0" stroke="none" d="M 575 882.5 C 575 867.312168 614.8466528 855 664 855 C 713.1533472 855 753 867.312168 753 882.5 C 753 897.687832 713.1533472 910 664 910 C 614.8466528 910 575 897.687832 575 882.5 Z" opacity="0.2"/></g><g transform="translate(-14,-14) scale(1,1)"><path fill="#ffffff" stroke="none" d="M 568 875.5 C 568 860.312168 607.8466528 848 657 848 C 706.1533472 848 746 860.312168 746 875.5 C 746 890.687832 706.1533472 903 657 903 C 607.8466528 903 568 890.687832 568 875.5 Z"/></g><g transform="translate(-14,-14) scale(1,1)"><path fill="none" stroke="#000000" d="M 568 875.5 C 568 860.312168 607.8466528 848 657 848 C 706.1533472 848 746 860.312168 746 875.5 C 746 890.687832 706.1533472 903 657 903 C 607.8466528 903 568 890.687832 568 875.5 Z" stroke-miterlimit="10"/></g><g transform="translate(-14,-14) scale(1,1)"><g><path fill="none" stroke="none"/><text fill="#000000" stroke="none" font-family="Arial" font-size="13px" font-style="normal" font-weight="bold" text-decoration="none" x="598.5" y="882.5">保存爬虫结果到本地</text></g></g><g transform="translate(-14,-14) scale(1,1)"><path fill="#C0C0C0" stroke="none" d="M 599 738.5 C 599 723.312168 629.220776 711 666.5 711 C 703.779224 711 734 723.312168 734 738.5 C 734 753.687832 703.779224 766 666.5 766 C 629.220776 766 599 753.687832 599 738.5 Z" opacity="0.2"/></g><g transform="translate(-14,-14) scale(1,1)"><path fill="#ffffff" stroke="none" d="M 592 731.5 C 592 716.312168 622.220776 704 659.5 704 C 696.779224 704 727 716.312168 727 731.5 C 727 746.687832 696.779224 759 659.5 759 C 622.220776 759 592 746.687832 592 731.5 Z"/></g><g transform="translate(-14,-14) scale(1,1)"><path fill="none" stroke="#000000" d="M 592 731.5 C 592 716.312168 622.220776 704 659.5 704 C 696.779224 704 727 716.312168 727 731.5 C 727 746.687832 696.779224 759 659.5 759 C 622.220776 759 592 746.687832 592 731.5 Z" stroke-miterlimit="10"/></g><g transform="translate(-14,-14) scale(1,1)"><g><path fill="none" stroke="none"/><text fill="#000000" stroke="none" font-family="Arial" font-size="13px" font-style="normal" font-weight="bold" text-decoration="none" x="620.5" y="738.5">浏览爬虫结果</text></g></g><g transform="translate(-14,-14) scale(1,1)"><path fill="#C0C0C0" stroke="none" d="M 279 498.5 C 279 478.8938896 306.5344848 463 340.5 463 C 374.4655152 463 402 478.8938896 402 498.5 C 402 518.1061104 374.4655152 534 340.5 534 C 306.5344848 534 279 518.1061104 279 498.5 Z" opacity="0.2"/></g><g transform="translate(-14,-14) scale(1,1)"><path fill="#ffffff" stroke="none" d="M 272 491.5 C 272 471.8938896 299.5344848 456 333.5 456 C 367.4655152 456 395 471.8938896 395 491.5 C 395 511.1061104 367.4655152 527 333.5 527 C 299.5344848 527 272 511.1061104 272 491.5 Z"/></g><g transform="translate(-14,-14) scale(1,1)"><path fill="none" stroke="#000000" d="M 272 491.5 C 272 471.8938896 299.5344848 456 333.5 456 C 367.4655152 456 395 471.8938896 395 491.5 C 395 511.1061104 367.4655152 527 333.5 527 C 299.5344848 527 272 511.1061104 272 491.5 Z" stroke-miterlimit="10"/></g><g transform="translate(-14,-14) scale(1,1)"><g><path fill="none" stroke="none"/><text fill="#000000" stroke="none" font-family="Arial" font-size="13px" font-style="normal" font-weight="bold" text-decoration="none" x="294.5" y="498.5">管理爬虫任务</text></g></g><g transform="translate(-14,-14) scale(1,1)"><path fill="#C0C0C0" stroke="none" d="M 647 286.5 C 647 273.5213072 674.5344848 263 708.5 263 C 742.4655152 263 770 273.5213072 770 286.5 C 770 299.4786928 742.4655152 310 708.5 310 C 674.5344848 310 647 299.4786928 647 286.5 Z" opacity="0.2"/></g><g transform="translate(-14,-14) scale(1,1)"><path fill="#ffffff" stroke="none" d="M 640 279.5 C 640 266.5213072 667.5344848 256 701.5 256 C 735.4655152 256 763 266.5213072 763 279.5 C 763 292.4786928 735.4655152 303 701.5 303 C 667.5344848 303 640 292.4786928 640 279.5 Z"/></g><g transform="translate(-14,-14) scale(1,1)"><path fill="none" stroke="#000000" d="M 640 279.5 C 640 266.5213072 667.5344848 256 701.5 256 C 735.4655152 256 763 266.5213072 763 279.5 C 763 292.4786928 735.4655152 303 701.5 303 C 667.5344848 303 640 292.4786928 640 279.5 Z" stroke-miterlimit="10"/></g><g transform="translate(-14,-14) scale(1,1)"><g><path fill="none" stroke="none"/><text fill="#000000" stroke="none" font-family="Arial" font-size="13px" font-style="normal" font-weight="bold" text-decoration="none" x="662.5" y="286.5">选择爬虫模板</text></g></g><g transform="translate(-14,-14) scale(1,1)"><path fill="none" stroke="#000000" d="M 136 494 L 271 492" stroke-miterlimit="10"/></g><g transform="translate(-14,-14) scale(1,1)"><path fill="none" stroke="#000000" d="M 260.90079658779644 496.359597508823 L 271 492 L 260.7760838209158 487.9414857443813" stroke-miterlimit="10"/></g><g transform="translate(-14,-14) scale(1,1)"><path fill="none" stroke="#000000" d="M 136 542 L 418 775" stroke-miterlimit="10"/></g><g transform="translate(-14,-14) scale(1,1)"><path fill="none" stroke="#000000" d="M 407.48429838130187 771.7719945064314 L 418 775 L 412.846820650694 765.2817315022744" stroke-miterlimit="10"/></g><g transform="translate(-14,-14) scale(1,1)"><path fill="#C0C0C0" stroke="none" d="M 551 123 C 551 107.5360256 582.5639216 95 621.5 95 C 660.4360784 95 692 107.5360256 692 123 C 692 138.4639744 660.4360784 151 621.5 151 C 582.5639216 151 551 138.4639744 551 123 Z" opacity="0.2"/></g><g transform="translate(-14,-14) scale(1,1)"><path fill="#ffffff" stroke="none" d="M 544 116 C 544 100.5360256 575.5639216 88 614.5 88 C 653.4360784 88 685 100.5360256 685 116 C 685 131.4639744 653.4360784 144 614.5 144 C 575.5639216 144 544 131.4639744 544 116 Z"/></g><g transform="translate(-14,-14) scale(1,1)"><path fill="none" stroke="#000000" d="M 544 116 C 544 100.5360256 575.5639216 88 614.5 88 C 653.4360784 88 685 100.5360256 685 116 C 685 131.4639744 653.4360784 144 614.5 144 C 575.5639216 144 544 131.4639744 544 116 Z" stroke-miterlimit="10"/></g><g transform="translate(-14,-14) scale(1,1)"><g><path fill="none" stroke="none"/><text fill="#000000" stroke="none" font-family="Arial" font-size="13px" font-style="normal" font-weight="bold" text-decoration="none" x="569" y="123">过滤关键字搜索</text></g></g><g transform="translate(-14,-14) scale(1,1)"><path fill="#C0C0C0" stroke="none" d="M 623 614.5 C 623 597.1030288 658.5933583999999 583 702.5 583 C 746.4066416000001 583 782 597.1030288 782 614.5 C 782 631.8969712 746.4066416000001 646 702.5 646 C 658.5933583999999 646 623 631.8969712 623 614.5 Z" opacity="0.2"/></g><g transform="translate(-14,-14) scale(1,1)"><path fill="#ffffff" stroke="none" d="M 616 607.5 C 616 590.1030288 651.5933583999999 576 695.5 576 C 739.4066416000001 576 775 590.1030288 775 607.5 C 775 624.8969712 739.4066416000001 639 695.5 639 C 651.5933583999999 639 616 624.8969712 616 607.5 Z"/></g><g transform="translate(-14,-14) scale(1,1)"><path fill="none" stroke="#000000" d="M 616 607.5 C 616 590.1030288 651.5933583999999 576 695.5 576 C 739.4066416000001 576 775 590.1030288 775 607.5 C 775 624.8969712 739.4066416000001 639 695.5 639 C 651.5933583999999 639 616 624.8969712 616 607.5 Z" stroke-miterlimit="10"/></g><g transform="translate(-14,-14) scale(1,1)"><g><path fill="none" stroke="none"/><text fill="#000000" stroke="none" font-family="Arial" font-size="13px" font-style="normal" font-weight="bold" text-decoration="none" x="656.5" y="614.5">暂停爬虫任务</text></g></g><g transform="translate(-14,-14) scale(1,1)"><path fill="#C0C0C0" stroke="none" d="M 231 1079 C 231 1065.7451648 261.4446336 1055 299 1055 C 336.5553664 1055 367 1065.7451648 367 1079 C 367 1092.2548352 336.5553664 1103 299 1103 C 261.4446336 1103 231 1092.2548352 231 1079 Z" opacity="0.2"/></g><g transform="translate(-14,-14) scale(1,1)"><path fill="#ffffff" stroke="none" d="M 224 1072 C 224 1058.7451648 254.4446336 1048 292 1048 C 329.5553664 1048 360 1058.7451648 360 1072 C 360 1085.2548352 329.5553664 1096 292 1096 C 254.4446336 1096 224 1085.2548352 224 1072 Z"/></g><g transform="translate(-14,-14) scale(1,1)"><path fill="none" stroke="#000000" d="M 224 1072 C 224 1058.7451648 254.4446336 1048 292 1048 C 329.5553664 1048 360 1058.7451648 360 1072 C 360 1085.2548352 329.5553664 1096 292 1096 C 254.4446336 1096 224 1085.2548352 224 1072 Z" stroke-miterlimit="10"/></g><g transform="translate(-14,-14) scale(1,1)"><g><path fill="none" stroke="none"/><text fill="#000000" stroke="none" font-family="Arial" font-size="13px" font-style="normal" font-weight="bold" text-decoration="none" x="253" y="1079">更新爬虫模板</text></g></g><g transform="translate(-14,-14) scale(1,1)"><path fill="#C0C0C0" stroke="none" d="M 399 1002.5 C 399 987.312168 426.5344848 975 460.5 975 C 494.4655152 975 522 987.312168 522 1002.5 C 522 1017.687832 494.4655152 1030 460.5 1030 C 426.5344848 1030 399 1017.687832 399 1002.5 Z" opacity="0.2"/></g><g transform="translate(-14,-14) scale(1,1)"><path fill="#ffffff" stroke="none" d="M 392 995.5 C 392 980.312168 419.5344848 968 453.5 968 C 487.4655152 968 515 980.312168 515 995.5 C 515 1010.687832 487.4655152 1023 453.5 1023 C 419.5344848 1023 392 1010.687832 392 995.5 Z"/></g><g transform="translate(-14,-14) scale(1,1)"><path fill="none" stroke="#000000" d="M 392 995.5 C 392 980.312168 419.5344848 968 453.5 968 C 487.4655152 968 515 980.312168 515 995.5 C 515 1010.687832 487.4655152 1023 453.5 1023 C 419.5344848 1023 392 1010.687832 392 995.5 Z" stroke-miterlimit="10"/></g><g transform="translate(-14,-14) scale(1,1)"><g><path fill="none" stroke="none"/><text fill="#000000" stroke="none" font-family="Arial" font-size="13px" font-style="normal" font-weight="bold" text-decoration="none" x="414.5" y="1002.5">查询爬虫模板</text></g></g><g transform="translate(-14,-14) scale(1,1)"><path fill="none" stroke="#000000" d="M 591 995 L 516 995" stroke-miterlimit="10" stroke-dasharray="3"/></g><g transform="translate(-14,-14) scale(1,1)"><path fill="none" stroke="#000000" d="M 526.1626748576241 990.790482243984 L 516 995 L 526.1626748576241 999.209517756016" stroke-miterlimit="10"/></g><g transform="translate(-14,-14) scale(1,1)"><g><path fill="none" stroke="none"/><text fill="#000000" stroke="none" font-family="Arial" font-size="13px" font-style="normal" font-weight="normal" text-decoration="none" x="524.470947265625" y="1031.5">«include»</text></g></g><g transform="translate(-14,-14) scale(1,1)"><path fill="none" stroke="#000000" d="M 608 1032 L 478 1135" stroke-miterlimit="10" stroke-dasharray="3"/></g><g transform="translate(-14,-14) scale(1,1)"><path fill="none" stroke="#000000" d="M 483.35135721435546 1125.3894341496264 L 478 1135 L 488.57967725866126 1131.9882846909834" stroke-miterlimit="10"/></g><g transform="translate(-14,-14) scale(1,1)"><g><path fill="none" stroke="none"/><text fill="#000000" stroke="none" font-family="Arial" font-size="13px" font-style="normal" font-weight="normal" text-decoration="none" x="533.470947265625" y="1112.5">«include»</text></g></g><g transform="translate(-14,-14) scale(1,1)"><path fill="none" stroke="#000000" d="M 363 455 L 448 352" stroke-miterlimit="10" stroke-dasharray="3"/></g><g transform="translate(-14,-14) scale(1,1)"><path fill="none" stroke="#000000" d="M 444.7782376351135 362.51761604472233 L 448 352 L 438.2847923572775 357.15894761155675" stroke-miterlimit="10"/></g><g transform="translate(-14,-14) scale(1,1)"><g><path fill="none" stroke="none"/><text fill="#000000" stroke="none" font-family="Arial" font-size="13px" font-style="normal" font-weight="normal" text-decoration="none" x="354.470947265625" y="389.5">«include»</text></g></g><g transform="translate(-14,-14) scale(1,1)"><path fill="none" stroke="#000000" d="M 543 136 L 404 174" stroke-miterlimit="10" stroke-dasharray="3"/></g><g transform="translate(-14,-14) scale(1,1)"><path fill="none" stroke="#000000" d="M 412.69288271746115 167.25954081234335 L 404 174 L 414.9130207174793 175.38057191767294" stroke-miterlimit="10"/></g><g transform="translate(-14,-14) scale(1,1)"><g><path fill="none" stroke="none"/><text fill="#000000" stroke="none" font-family="Arial" font-size="13px" font-style="normal" font-weight="normal" text-decoration="none" x="453.23291015625" y="189.5">«extend»</text></g></g><g transform="translate(-14,-14) scale(1,1)"><path fill="#C0C0C0" stroke="none" d="M 535 202.5 C 535 187.31216799999999 561.862912 175 595 175 C 628.137088 175 655 187.31216799999999 655 202.5 C 655 217.68783200000001 628.137088 230 595 230 C 561.862912 230 535 217.68783200000001 535 202.5 Z" opacity="0.2"/></g><g transform="translate(-14,-14) scale(1,1)"><path fill="#ffffff" stroke="none" d="M 528 195.5 C 528 180.31216799999999 554.862912 168 588 168 C 621.137088 168 648 180.31216799999999 648 195.5 C 648 210.68783200000001 621.137088 223 588 223 C 554.862912 223 528 210.68783200000001 528 195.5 Z"/></g><g transform="translate(-14,-14) scale(1,1)"><path fill="none" stroke="#000000" d="M 528 195.5 C 528 180.31216799999999 554.862912 168 588 168 C 621.137088 168 648 180.31216799999999 648 195.5 C 648 210.68783200000001 621.137088 223 588 223 C 554.862912 223 528 210.68783200000001 528 195.5 Z" stroke-miterlimit="10"/></g><g transform="translate(-14,-14) scale(1,1)"><g><path fill="none" stroke="none"/><text fill="#000000" stroke="none" font-family="Arial" font-size="13px" font-style="normal" font-weight="bold" text-decoration="none" x="555.5" y="202.5">按类别搜索</text></g></g><g transform="translate(-14,-14) scale(1,1)"><path fill="none" stroke="#000000" d="M 527 194 L 404 193" stroke-miterlimit="10" stroke-dasharray="3"/></g><g transform="translate(-14,-14) scale(1,1)"><path fill="none" stroke="#000000" d="M 414.1965615974903 188.8732420002397 L 404 193 L 414.1281164163181 197.2919992844254" stroke-miterlimit="10"/></g><g transform="translate(-14,-14) scale(1,1)"><g><path fill="none" stroke="none"/><text fill="#000000" stroke="none" font-family="Arial" font-size="13px" font-style="normal" font-weight="normal" text-decoration="none" x="437.23291015625" y="229.5">«extend»</text></g></g><g transform="translate(-14,-14) scale(1,1)"><path fill="#ffffff" stroke="none" d="M 906.3018181818181 399.45 C 906.3018181818181 387.05120624 916.0164239941818 377 928 377 C 939.9835760058182 377 949.6981818181819 387.05120624 949.6981818181819 399.45 C 949.6981818181819 411.84879376 939.9835760058182 421.9 928 421.9 C 916.0164239941818 421.9 906.3018181818181 411.84879376 906.3018181818181 399.45 Z"/></g><g transform="translate(-14,-14) scale(1,1)"><path fill="none" stroke="#000000" d="M 906.3018181818181 399.45 C 906.3018181818181 387.05120624 916.0164239941818 377 928 377 C 939.9835760058182 377 949.6981818181819 387.05120624 949.6981818181819 399.45 C 949.6981818181819 411.84879376 939.9835760058182 421.9 928 421.9 C 916.0164239941818 421.9 906.3018181818181 411.84879376 906.3018181818181 399.45 Z" stroke-miterlimit="10"/></g><g transform="translate(-14,-14) scale(1,1)"><path fill="none" stroke="#000000" d="M 928 421.9 L 928 465.1" stroke-miterlimit="10"/></g><g transform="translate(-14,-14) scale(1,1)"><path fill="none" stroke="#000000" d="M 905.0254545454545 438.1 L 950.9745454545455 438.1" stroke-miterlimit="10"/></g><g transform="translate(-14,-14) scale(1,1)"><path fill="none" stroke="#000000" d="M 928 465.1 L 896.090909090909 510" stroke-miterlimit="10"/></g><g transform="translate(-14,-14) scale(1,1)"><path fill="none" stroke="#000000" d="M 928 465.1 L 959.909090909091 510" stroke-miterlimit="10"/></g><g transform="translate(-14,-14) scale(1,1)"><g><path fill="none" stroke="none"/><text fill="#000000" stroke="none" font-family="Arial" font-size="13px" font-style="normal" font-weight="bold" text-decoration="none" x="908.85546875" y="530.5">Tasker</text></g></g><g transform="translate(-14,-14) scale(1,1)"><path fill="#C0C0C0" stroke="none" d="M 1183 799 C 1183 781.3268864 1222.8466528 767 1272 767 C 1321.1533472 767 1361 781.3268864 1361 799 C 1361 816.6731136 1321.1533472 831 1272 831 C 1222.8466528 831 1183 816.6731136 1183 799 Z" opacity="0.2"/></g><g transform="translate(-14,-14) scale(1,1)"><path fill="#ffffff" stroke="none" d="M 1176 792 C 1176 774.3268864 1215.8466528 760 1265 760 C 1314.1533472 760 1354 774.3268864 1354 792 C 1354 809.6731136 1314.1533472 824 1265 824 C 1215.8466528 824 1176 809.6731136 1176 792 Z"/></g><g transform="translate(-14,-14) scale(1,1)"><path fill="none" stroke="#000000" d="M 1176 792 C 1176 774.3268864 1215.8466528 760 1265 760 C 1314.1533472 760 1354 774.3268864 1354 792 C 1354 809.6731136 1314.1533472 824 1265 824 C 1215.8466528 824 1176 809.6731136 1176 792 Z" stroke-miterlimit="10"/></g><g transform="translate(-14,-14) scale(1,1)"><g><path fill="none" stroke="none"/><text fill="#000000" stroke="none" font-family="Arial" font-size="13px" font-style="normal" font-weight="bold" text-decoration="none" x="1206.5" y="799">获取服务器负载情况</text></g></g><g transform="translate(-14,-14) scale(1,1)"><path fill="#C0C0C0" stroke="none" d="M 1447 142.5 C 1447 120.6847504 1475.4299152 103 1510.5 103 C 1545.5700848 103 1574 120.6847504 1574 142.5 C 1574 164.31524960000002 1545.5700848 182 1510.5 182 C 1475.4299152 182 1447 164.31524960000002 1447 142.5 Z" opacity="0.2"/></g><g transform="translate(-14,-14) scale(1,1)"><path fill="#ffffff" stroke="none" d="M 1440 135.5 C 1440 113.6847504 1468.4299152 96 1503.5 96 C 1538.5700848 96 1567 113.6847504 1567 135.5 C 1567 157.31524960000002 1538.5700848 175 1503.5 175 C 1468.4299152 175 1440 157.31524960000002 1440 135.5 Z"/></g><g transform="translate(-14,-14) scale(1,1)"><path fill="none" stroke="#000000" d="M 1440 135.5 C 1440 113.6847504 1468.4299152 96 1503.5 96 C 1538.5700848 96 1567 113.6847504 1567 135.5 C 1567 157.31524960000002 1538.5700848 175 1503.5 175 C 1468.4299152 175 1440 157.31524960000002 1440 135.5 Z" stroke-miterlimit="10"/></g><g transform="translate(-14,-14) scale(1,1)"><g><path fill="none" stroke="none"/><text fill="#000000" stroke="none" font-family="Arial" font-size="13px" font-style="normal" font-weight="bold" text-decoration="none" x="1477.5" y="142.5">挂起任务</text></g></g><g transform="translate(-14,-14) scale(1,1)"><path fill="#C0C0C0" stroke="none" d="M 1439 303 C 1439 280.908608 1469.4446336 263 1507 263 C 1544.5553664 263 1575 280.908608 1575 303 C 1575 325.091392 1544.5553664 343 1507 343 C 1469.4446336 343 1439 325.091392 1439 303 Z" opacity="0.2"/></g><g transform="translate(-14,-14) scale(1,1)"><path fill="#ffffff" stroke="none" d="M 1432 296 C 1432 273.908608 1462.4446336 256 1500 256 C 1537.5553664 256 1568 273.908608 1568 296 C 1568 318.091392 1537.5553664 336 1500 336 C 1462.4446336 336 1432 318.091392 1432 296 Z"/></g><g transform="translate(-14,-14) scale(1,1)"><path fill="none" stroke="#000000" d="M 1432 296 C 1432 273.908608 1462.4446336 256 1500 256 C 1537.5553664 256 1568 273.908608 1568 296 C 1568 318.091392 1537.5553664 336 1500 336 C 1462.4446336 336 1432 318.091392 1432 296 Z" stroke-miterlimit="10"/></g><g transform="translate(-14,-14) scale(1,1)"><g><path fill="none" stroke="none"/><text fill="#000000" stroke="none" font-family="Arial" font-size="13px" font-style="normal" font-weight="bold" text-decoration="none" x="1474" y="303">唤醒任务</text></g></g><g transform="translate(-14,-14) scale(1,1)"><path fill="#C0C0C0" stroke="none" d="M 1439 438.5 C 1439 416.6847504 1469.2207760000001 399 1506.5 399 C 1543.7792239999999 399 1574 416.6847504 1574 438.5 C 1574 460.3152496 1543.7792239999999 478 1506.5 478 C 1469.2207760000001 478 1439 460.3152496 1439 438.5 Z" opacity="0.2"/></g><g transform="translate(-14,-14) scale(1,1)"><path fill="#ffffff" stroke="none" d="M 1432 431.5 C 1432 409.6847504 1462.2207760000001 392 1499.5 392 C 1536.7792239999999 392 1567 409.6847504 1567 431.5 C 1567 453.3152496 1536.7792239999999 471 1499.5 471 C 1462.2207760000001 471 1432 453.3152496 1432 431.5 Z"/></g><g transform="translate(-14,-14) scale(1,1)"><path fill="none" stroke="#000000" d="M 1432 431.5 C 1432 409.6847504 1462.2207760000001 392 1499.5 392 C 1536.7792239999999 392 1567 409.6847504 1567 431.5 C 1567 453.3152496 1536.7792239999999 471 1499.5 471 C 1462.2207760000001 471 1432 453.3152496 1432 431.5 Z" stroke-miterlimit="10"/></g><g transform="translate(-14,-14) scale(1,1)"><g><path fill="none" stroke="none"/><text fill="#000000" stroke="none" font-family="Arial" font-size="13px" font-style="normal" font-weight="bold" text-decoration="none" x="1473.5" y="438.5">终止任务</text></g></g><g transform="translate(-14,-14) scale(1,1)"><path fill="none" stroke="#000000" d="M 544 307 L 639 290" stroke-miterlimit="10" stroke-dasharray="3"/></g><g transform="translate(-14,-14) scale(1,1)"><path fill="none" stroke="#000000" d="M 629.7377375199789 295.93384308447673 L 639 290 L 628.2547307077169 287.6464520747777" stroke-miterlimit="10"/></g><g transform="translate(-14,-14) scale(1,1)"><path fill="none" stroke="#000000" d="M 544 334 L 639 355" stroke-miterlimit="10" stroke-dasharray="3"/></g><g transform="translate(-14,-14) scale(1,1)"><path fill="none" stroke="#000000" d="M 628.1682858166411 356.91675972673187 L 639 355 L 629.985467648395 348.6961752497498" stroke-miterlimit="10"/></g><g transform="translate(-14,-14) scale(1,1)"><path fill="#C0C0C0" stroke="none" d="M 1207 603 C 1207 583.1177472 1237.4446336 567 1275 567 C 1312.5553664 567 1343 583.1177472 1343 603 C 1343 622.8822528 1312.5553664 639 1275 639 C 1237.4446336 639 1207 622.8822528 1207 603 Z" opacity="0.2"/></g><g transform="translate(-14,-14) scale(1,1)"><path fill="#ffffff" stroke="none" d="M 1200 596 C 1200 576.1177472 1230.4446336 560 1268 560 C 1305.5553664 560 1336 576.1177472 1336 596 C 1336 615.8822528 1305.5553664 632 1268 632 C 1230.4446336 632 1200 615.8822528 1200 596 Z"/></g><g transform="translate(-14,-14) scale(1,1)"><path fill="none" stroke="#000000" d="M 1200 596 C 1200 576.1177472 1230.4446336 560 1268 560 C 1305.5553664 560 1336 576.1177472 1336 596 C 1336 615.8822528 1305.5553664 632 1268 632 C 1230.4446336 632 1200 615.8822528 1200 596 Z" stroke-miterlimit="10"/></g><g transform="translate(-14,-14) scale(1,1)"><g><path fill="none" stroke="none"/><text fill="#000000" stroke="none" font-family="Arial" font-size="13px" font-style="normal" font-weight="bold" text-decoration="none" x="1242" y="603">新增任务</text></g></g><g transform="translate(-14,-14) scale(1,1)"><path fill="#C0C0C0" stroke="none" d="M 1207 1178.5 C 1207 1158.8938896 1238.5639216 1143 1277.5 1143 C 1316.4360784 1143 1348 1158.8938896 1348 1178.5 C 1348 1198.1061104 1316.4360784 1214 1277.5 1214 C 1238.5639216 1214 1207 1198.1061104 1207 1178.5 Z" opacity="0.2"/></g><g transform="translate(-14,-14) scale(1,1)"><path fill="#ffffff" stroke="none" d="M 1200 1171.5 C 1200 1151.8938896 1231.5639216 1136 1270.5 1136 C 1309.4360784 1136 1341 1151.8938896 1341 1171.5 C 1341 1191.1061104 1309.4360784 1207 1270.5 1207 C 1231.5639216 1207 1200 1191.1061104 1200 1171.5 Z"/></g><g transform="translate(-14,-14) scale(1,1)"><path fill="none" stroke="#000000" d="M 1200 1171.5 C 1200 1151.8938896 1231.5639216 1136 1270.5 1136 C 1309.4360784 1136 1341 1151.8938896 1341 1171.5 C 1341 1191.1061104 1309.4360784 1207 1270.5 1207 C 1231.5639216 1207 1200 1191.1061104 1200 1171.5 Z" stroke-miterlimit="10"/></g><g transform="translate(-14,-14) scale(1,1)"><g><path fill="none" stroke="none"/><text fill="#000000" stroke="none" font-family="Arial" font-size="13px" font-style="normal" font-weight="bold" text-decoration="none" x="1225" y="1178.5">新增服务器节点</text></g></g><g transform="translate(-14,-14) scale(1,1)"><path fill="#C0C0C0" stroke="none" d="M 1727 1170.5 C 1727 1150.8938896 1759.0116368 1135 1798.5 1135 C 1837.9883632 1135 1870 1150.8938896 1870 1170.5 C 1870 1190.1061104 1837.9883632 1206 1798.5 1206 C 1759.0116368 1206 1727 1190.1061104 1727 1170.5 Z" opacity="0.2"/></g><g transform="translate(-14,-14) scale(1,1)"><path fill="#ffffff" stroke="none" d="M 1720 1163.5 C 1720 1143.8938896 1752.0116368 1128 1791.5 1128 C 1830.9883632 1128 1863 1143.8938896 1863 1163.5 C 1863 1183.1061104 1830.9883632 1199 1791.5 1199 C 1752.0116368 1199 1720 1183.1061104 1720 1163.5 Z"/></g><g transform="translate(-14,-14) scale(1,1)"><path fill="none" stroke="#000000" d="M 1720 1163.5 C 1720 1143.8938896 1752.0116368 1128 1791.5 1128 C 1830.9883632 1128 1863 1143.8938896 1863 1163.5 C 1863 1183.1061104 1830.9883632 1199 1791.5 1199 C 1752.0116368 1199 1720 1183.1061104 1720 1163.5 Z" stroke-miterlimit="10"/></g><g transform="translate(-14,-14) scale(1,1)"><g><path fill="none" stroke="none"/><text fill="#000000" stroke="none" font-family="Arial" font-size="13px" font-style="normal" font-weight="bold" text-decoration="none" x="1746" y="1170.5">删除服务器节点</text></g></g><g transform="translate(-14,-14) scale(1,1)"><path fill="#C0C0C0" stroke="none" d="M 1735 795 C 1735 775.1177472 1766.5639216 759 1805.5 759 C 1844.4360784 759 1876 775.1177472 1876 795 C 1876 814.8822528 1844.4360784 831 1805.5 831 C 1766.5639216 831 1735 814.8822528 1735 795 Z" opacity="0.2"/></g><g transform="translate(-14,-14) scale(1,1)"><path fill="#ffffff" stroke="none" d="M 1728 788 C 1728 768.1177472 1759.5639216 752 1798.5 752 C 1837.4360784 752 1869 768.1177472 1869 788 C 1869 807.8822528 1837.4360784 824 1798.5 824 C 1759.5639216 824 1728 807.8822528 1728 788 Z"/></g><g transform="translate(-14,-14) scale(1,1)"><path fill="none" stroke="#000000" d="M 1728 788 C 1728 768.1177472 1759.5639216 752 1798.5 752 C 1837.4360784 752 1869 768.1177472 1869 788 C 1869 807.8822528 1837.4360784 824 1798.5 824 C 1759.5639216 824 1728 807.8822528 1728 788 Z" stroke-miterlimit="10"/></g><g transform="translate(-14,-14) scale(1,1)"><g><path fill="none" stroke="none"/><text fill="#000000" stroke="none" font-family="Arial" font-size="13px" font-style="normal" font-weight="bold" text-decoration="none" x="1753" y="795">停用服务器节点</text></g></g><g transform="translate(-14,-14) scale(1,1)"><path fill="#C0C0C0" stroke="none" d="M 1207 990.5 C 1207 973.1030288 1238.5639216 959 1277.5 959 C 1316.4360784 959 1348 973.1030288 1348 990.5 C 1348 1007.8969712 1316.4360784 1022 1277.5 1022 C 1238.5639216 1022 1207 1007.8969712 1207 990.5 Z" opacity="0.2"/></g><g transform="translate(-14,-14) scale(1,1)"><path fill="#ffffff" stroke="none" d="M 1200 983.5 C 1200 966.1030288 1231.5639216 952 1270.5 952 C 1309.4360784 952 1341 966.1030288 1341 983.5 C 1341 1000.8969712 1309.4360784 1015 1270.5 1015 C 1231.5639216 1015 1200 1000.8969712 1200 983.5 Z"/></g><g transform="translate(-14,-14) scale(1,1)"><path fill="none" stroke="#000000" d="M 1200 983.5 C 1200 966.1030288 1231.5639216 952 1270.5 952 C 1309.4360784 952 1341 966.1030288 1341 983.5 C 1341 1000.8969712 1309.4360784 1015 1270.5 1015 C 1231.5639216 1015 1200 1000.8969712 1200 983.5 Z" stroke-miterlimit="10"/></g><g transform="translate(-14,-14) scale(1,1)"><g><path fill="none" stroke="none"/><text fill="#000000" stroke="none" font-family="Arial" font-size="13px" font-style="normal" font-weight="bold" text-decoration="none" x="1225" y="990.5">查询服务器节点</text></g></g><g transform="translate(-14,-14) scale(1,1)"><path fill="none" stroke="#000000" d="M 1727 814 L 1342 956" stroke-miterlimit="10" stroke-dasharray="3"/></g><g transform="translate(-14,-14) scale(1,1)"><path fill="none" stroke="#000000" d="M 1350.0781279851362 948.5338197010948 L 1342 956 L 1352.9914857964998 956.4327123586654" stroke-miterlimit="10"/></g><g transform="translate(-14,-14) scale(1,1)"><g><path fill="none" stroke="none"/><text fill="#000000" stroke="none" font-family="Arial" font-size="13px" font-style="normal" font-weight="normal" text-decoration="none" x="1517.23291015625" y="919.5">«extend»</text></g></g><g transform="translate(-14,-14) scale(1,1)"><path fill="none" stroke="#000000" d="M 1719 1138 L 1342 1008" stroke-miterlimit="10" stroke-dasharray="3"/></g><g transform="translate(-14,-14) scale(1,1)"><path fill="none" stroke="#000000" d="M 1352.9797818011793 1007.3333729689763 L 1342 1008 L 1350.2352546617217 1015.2925016734034" stroke-miterlimit="10"/></g><g transform="translate(-14,-14) scale(1,1)"><g><path fill="none" stroke="none"/><text fill="#000000" stroke="none" font-family="Arial" font-size="13px" font-style="normal" font-weight="normal" text-decoration="none" x="1493.23291015625" y="1107.5">«extend»</text></g></g><g transform="translate(-14,-14) scale(1,1)"><path fill="none" stroke="#000000" d="M 356 951 L 391 967" stroke-miterlimit="10" stroke-dasharray="3"/></g><g transform="translate(-14,-14) scale(1,1)"><path fill="none" stroke="#000000" d="M 380.00715852022904 966.6032176911364 L 391 967 L 383.5074547063975 958.9463197838929" stroke-miterlimit="10"/></g><g transform="translate(-14,-14) scale(1,1)"><g><path fill="none" stroke="none"/><text fill="#000000" stroke="none" font-family="Arial" font-size="13px" font-style="normal" font-weight="normal" text-decoration="none" x="358.23291015625" y="937.5">«extend»</text></g></g><g transform="translate(-14,-14) scale(1,1)"><path fill="none" stroke="#000000" d="M 344 1047 L 392 1024" stroke-miterlimit="10" stroke-dasharray="3"/></g><g transform="translate(-14,-14) scale(1,1)"><path fill="none" stroke="#000000" d="M 384.65415449093297 1032.1877074787099 L 392 1024 L 381.0161193464225 1024.5952863075574" stroke-miterlimit="10"/></g><g transform="translate(-14,-14) scale(1,1)"><g><path fill="none" stroke="none"/><text fill="#000000" stroke="none" font-family="Arial" font-size="13px" font-style="normal" font-weight="normal" text-decoration="none" x="328.23291015625" y="1013.5">«extend»</text></g></g><g transform="translate(-14,-14) scale(1,1)"><path fill="#C0C0C0" stroke="none" d="M 439 558.5 C 439 545.5213072 466.5344848 535 500.5 535 C 534.4655152 535 562 545.5213072 562 558.5 C 562 571.4786928 534.4655152 582 500.5 582 C 466.5344848 582 439 571.4786928 439 558.5 Z" opacity="0.2"/></g><g transform="translate(-14,-14) scale(1,1)"><path fill="#ffffff" stroke="none" d="M 432 551.5 C 432 538.5213072 459.5344848 528 493.5 528 C 527.4655152 528 555 538.5213072 555 551.5 C 555 564.4786928 527.4655152 575 493.5 575 C 459.5344848 575 432 564.4786928 432 551.5 Z"/></g><g transform="translate(-14,-14) scale(1,1)"><path fill="none" stroke="#000000" d="M 432 551.5 C 432 538.5213072 459.5344848 528 493.5 528 C 527.4655152 528 555 538.5213072 555 551.5 C 555 564.4786928 527.4655152 575 493.5 575 C 459.5344848 575 432 564.4786928 432 551.5 Z" stroke-miterlimit="10"/></g><g transform="translate(-14,-14) scale(1,1)"><g><path fill="none" stroke="none"/><text fill="#000000" stroke="none" font-family="Arial" font-size="13px" font-style="normal" font-weight="bold" text-decoration="none" x="454.5" y="558.5">查询爬虫任务</text></g></g><g transform="translate(-14,-14) scale(1,1)"><path fill="none" stroke="#000000" d="M 396 515 L 431 528" stroke-miterlimit="10" stroke-dasharray="3"/></g><g transform="translate(-14,-14) scale(1,1)"><path fill="none" stroke="#000000" d="M 420.00755437847283 528.4076018372971 L 431 528 L 422.9389491360169 520.5153851823706" stroke-miterlimit="10"/></g><g transform="translate(-14,-14) scale(1,1)"><g><path fill="none" stroke="none"/><text fill="#000000" stroke="none" font-family="Arial" font-size="13px" font-style="normal" font-weight="normal" text-decoration="none" x="395.470947265625" y="499.5">«include»</text></g></g><g transform="translate(-14,-14) scale(1,1)"><path fill="none" stroke="#000000" d="M 547 465 L 508 527" stroke-miterlimit="10" stroke-dasharray="3"/></g><g transform="translate(-14,-14) scale(1,1)"><path fill="none" stroke="#000000" d="M 509.84793602836635 516.1563321502794 L 508 527 L 516.9743191663288 520.6390570273848" stroke-miterlimit="10"/></g><g transform="translate(-14,-14) scale(1,1)"><g><path fill="none" stroke="none"/><text fill="#000000" stroke="none" font-family="Arial" font-size="13px" font-style="normal" font-weight="normal" text-decoration="none" x="525.23291015625" y="517.5">«extend»</text></g></g><g transform="translate(-14,-14) scale(1,1)"><path fill="none" stroke="#000000" d="M 623 528 L 556 540" stroke-miterlimit="10" stroke-dasharray="3"/></g><g transform="translate(-14,-14) scale(1,1)"><path fill="none" stroke="#000000" d="M 565.2613590627561 534.0647469884844 L 556 540 L 566.7456274487789 542.3519121437779" stroke-miterlimit="10"/></g><g transform="translate(-14,-14) scale(1,1)"><g><path fill="none" stroke="none"/><text fill="#000000" stroke="none" font-family="Arial" font-size="13px" font-style="normal" font-weight="normal" text-decoration="none" x="567.23291015625" y="569.5">«extend»</text></g></g><g transform="translate(-14,-14) scale(1,1)"><path fill="none" stroke="#000000" d="M 615 585 L 556 568" stroke-miterlimit="10" stroke-dasharray="3"/></g><g transform="translate(-14,-14) scale(1,1)"><path fill="none" stroke="#000000" d="M 566.9308804220549 566.7688000979791 L 556 568 L 564.5998894704895 574.8587098710591" stroke-miterlimit="10"/></g><g transform="translate(-14,-14) scale(1,1)"><g><path fill="none" stroke="none"/><text fill="#000000" stroke="none" font-family="Arial" font-size="13px" font-style="normal" font-weight="normal" text-decoration="none" x="550.23291015625" y="610.5">«extend»</text></g></g><g transform="translate(-14,-14) scale(1,1)"><path fill="none" stroke="#000000" d="M 488 647 L 492 576" stroke-miterlimit="10" stroke-dasharray="3"/></g><g transform="translate(-14,-14) scale(1,1)"><path fill="none" stroke="#000000" d="M 495.6312145697682 586.383365579055 L 492 576 L 487.22550823373774 585.9098046587152" stroke-miterlimit="10"/></g><g transform="translate(-14,-14) scale(1,1)"><g><path fill="none" stroke="none"/><text fill="#000000" stroke="none" font-family="Arial" font-size="13px" font-style="normal" font-weight="normal" text-decoration="none" x="433.23291015625" y="615.5">«extend»</text></g></g><g transform="translate(-14,-14) scale(1,1)"><path fill="none" stroke="#000000" d="M 591 753 L 512 778" stroke-miterlimit="10" stroke-dasharray="3"/></g><g transform="translate(-14,-14) scale(1,1)"><path fill="none" stroke="#000000" d="M 520.4190462587055 770.9204759980789 L 512 778 L 522.9591441299852 778.9471852713226" stroke-miterlimit="10"/></g><g transform="translate(-14,-14) scale(1,1)"><g><path fill="none" stroke="none"/><text fill="#000000" stroke="none" font-family="Arial" font-size="13px" font-style="normal" font-weight="normal" text-decoration="none" x="533.23291015625" y="799.5">«extend»</text></g></g><g transform="translate(-14,-14) scale(1,1)"><path fill="none" stroke="#000000" d="M 580 847 L 512 823" stroke-miterlimit="10" stroke-dasharray="3"/></g><g transform="translate(-14,-14) scale(1,1)"><path fill="none" stroke="#000000" d="M 522.9843163492509 822.4128080896497 L 512 823 L 520.18229195892 830.351877195587" stroke-miterlimit="10"/></g><g transform="translate(-14,-14) scale(1,1)"><g><path fill="none" stroke="none"/><text fill="#000000" stroke="none" font-family="Arial" font-size="13px" font-style="normal" font-weight="normal" text-decoration="none" x="509.23291015625" y="869.5">«extend»</text></g></g><g transform="translate(-14,-14) scale(1,1)"><path fill="#C0C0C0" stroke="none" d="M 1735 987 C 1735 967.1177472 1766.5639216 951 1805.5 951 C 1844.4360784 951 1876 967.1177472 1876 987 C 1876 1006.8822528 1844.4360784 1023 1805.5 1023 C 1766.5639216 1023 1735 1006.8822528 1735 987 Z" opacity="0.2"/></g><g transform="translate(-14,-14) scale(1,1)"><path fill="#ffffff" stroke="none" d="M 1728 980 C 1728 960.1177472 1759.5639216 944 1798.5 944 C 1837.4360784 944 1869 960.1177472 1869 980 C 1869 999.8822528 1837.4360784 1016 1798.5 1016 C 1759.5639216 1016 1728 999.8822528 1728 980 Z"/></g><g transform="translate(-14,-14) scale(1,1)"><path fill="none" stroke="#000000" d="M 1728 980 C 1728 960.1177472 1759.5639216 944 1798.5 944 C 1837.4360784 944 1869 960.1177472 1869 980 C 1869 999.8822528 1837.4360784 1016 1798.5 1016 C 1759.5639216 1016 1728 999.8822528 1728 980 Z" stroke-miterlimit="10"/></g><g transform="translate(-14,-14) scale(1,1)"><g><path fill="none" stroke="none"/><text fill="#000000" stroke="none" font-family="Arial" font-size="13px" font-style="normal" font-weight="bold" text-decoration="none" x="1753" y="987">恢复服务器节点</text></g></g><g transform="translate(-14,-14) scale(1,1)"><path fill="none" stroke="#000000" d="M 1727 980 L 1342 983" stroke-miterlimit="10" stroke-dasharray="3"/></g><g transform="translate(-14,-14) scale(1,1)"><path fill="none" stroke="#000000" d="M 1352.1295658991971 978.7114227657858 L 1342 983 L 1352.1951667817534 987.1302026938432" stroke-miterlimit="10"/></g><g transform="translate(-14,-14) scale(1,1)"><g><path fill="none" stroke="none"/><text fill="#000000" stroke="none" font-family="Arial" font-size="13px" font-style="normal" font-weight="normal" text-decoration="none" x="1507.23291015625" y="1016.5">«extend»</text></g></g><g transform="translate(-14,-14) scale(1,1)"><path fill="none" stroke="#000000" d="M 1781 751 L 1522 176" stroke-miterlimit="10" stroke-dasharray="3"/></g><g transform="translate(-14,-14) scale(1,1)"><path fill="none" stroke="#000000" d="M 1530.0118778392768 183.5372285018105 L 1522 176 L 1522.335627765208 186.9948785351736" stroke-miterlimit="10"/></g><g transform="translate(-14,-14) scale(1,1)"><path fill="none" stroke="#000000" d="M 1782 943 L 1518 337" stroke-miterlimit="10" stroke-dasharray="3"/></g><g transform="translate(-14,-14) scale(1,1)"><path fill="none" stroke="#000000" d="M 1525.9180757017148 344.63571065336527 L 1518 337 L 1518.1996622404579 347.9981878048038" stroke-miterlimit="10"/></g><g transform="translate(-14,-14) scale(1,1)"><path fill="none" stroke="#000000" d="M 1777 1127 L 1515 472" stroke-miterlimit="10" stroke-dasharray="3"/></g><g transform="translate(-14,-14) scale(1,1)"><path fill="none" stroke="#000000" d="M 1522.6827618052685 479.8724310758183 L 1515 472 L 1514.8658835726114 482.99918236888107" stroke-miterlimit="10"/></g><g transform="translate(-14,-14) scale(1,1)"><path fill="#C0C0C0" stroke="none" d="M 1447 1175 C 1447 1157.3268864 1481.0263552 1143 1523 1143 C 1564.9736448 1143 1599 1157.3268864 1599 1175 C 1599 1192.6731136 1564.9736448 1207 1523 1207 C 1481.0263552 1207 1447 1192.6731136 1447 1175 Z" opacity="0.2"/></g><g transform="translate(-14,-14) scale(1,1)"><path fill="#ffffff" stroke="none" d="M 1440 1168 C 1440 1150.3268864 1474.0263552 1136 1516 1136 C 1557.9736448 1136 1592 1150.3268864 1592 1168 C 1592 1185.6731136 1557.9736448 1200 1516 1200 C 1474.0263552 1200 1440 1185.6731136 1440 1168 Z"/></g><g transform="translate(-14,-14) scale(1,1)"><path fill="none" stroke="#000000" d="M 1440 1168 C 1440 1150.3268864 1474.0263552 1136 1516 1136 C 1557.9736448 1136 1592 1150.3268864 1592 1168 C 1592 1185.6731136 1557.9736448 1200 1516 1200 C 1474.0263552 1200 1440 1185.6731136 1440 1168 Z" stroke-miterlimit="10"/></g><g transform="translate(-14,-14) scale(1,1)"><g><path fill="none" stroke="none"/><text fill="#000000" stroke="none" font-family="Arial" font-size="13px" font-style="normal" font-weight="bold" text-decoration="none" x="1470.5" y="1175">配置服务器节点</text></g></g><g transform="translate(-14,-14) scale(1,1)"><path fill="none" stroke="#000000" d="M 1342 1170 L 1439 1169" stroke-miterlimit="10" stroke-dasharray="3"/></g><g transform="translate(-14,-14) scale(1,1)"><path fill="none" stroke="#000000" d="M 1428.8812599343776 1173.3140583543072 L 1439 1169 L 1428.7944703657693 1164.8954701992996" stroke-miterlimit="10"/></g><g transform="translate(-14,-14) scale(1,1)"><path fill="none" stroke="#000000" d="M 1267 633 L 1266 759" stroke-miterlimit="10" stroke-dasharray="3"/></g><g transform="translate(-14,-14) scale(1,1)"><path fill="none" stroke="#000000" d="M 1261.8712684221991 748.8042373723948 L 1266 759 L 1270.290038796986 748.87105301029" stroke-miterlimit="10"/></g><g transform="translate(-14,-14) scale(1,1)"><path fill="#C0C0C0" stroke="none" d="M 1199 307 C 1199 287.1177472 1231.2354944 271 1271 271 C 1310.7645056 271 1343 287.1177472 1343 307 C 1343 326.8822528 1310.7645056 343 1271 343 C 1231.2354944 343 1199 326.8822528 1199 307 Z" opacity="0.2"/></g><g transform="translate(-14,-14) scale(1,1)"><path fill="#ffffff" stroke="none" d="M 1192 300 C 1192 280.1177472 1224.2354944 264 1264 264 C 1303.7645056 264 1336 280.1177472 1336 300 C 1336 319.8822528 1303.7645056 336 1264 336 C 1224.2354944 336 1192 319.8822528 1192 300 Z"/></g><g transform="translate(-14,-14) scale(1,1)"><path fill="none" stroke="#000000" d="M 1192 300 C 1192 280.1177472 1224.2354944 264 1264 264 C 1303.7645056 264 1336 280.1177472 1336 300 C 1336 319.8822528 1303.7645056 336 1264 336 C 1224.2354944 336 1192 319.8822528 1192 300 Z" stroke-miterlimit="10"/></g><g transform="translate(-14,-14) scale(1,1)"><g><path fill="none" stroke="none"/><text fill="#000000" stroke="none" font-family="Arial" font-size="13px" font-style="normal" font-weight="bold" text-decoration="none" x="1225" y="307">查询任务状态</text></g></g><g transform="translate(-14,-14) scale(1,1)"><path fill="#C0C0C0" stroke="none" d="M 1399 702.5 C 1399 685.1030288 1434.817216 671 1479 671 C 1523.182784 671 1559 685.1030288 1559 702.5 C 1559 719.8969712 1523.182784 734 1479 734 C 1434.817216 734 1399 719.8969712 1399 702.5 Z" opacity="0.2"/></g><g transform="translate(-14,-14) scale(1,1)"><path fill="#ffffff" stroke="none" d="M 1392 695.5 C 1392 678.1030288 1427.817216 664 1472 664 C 1516.182784 664 1552 678.1030288 1552 695.5 C 1552 712.8969712 1516.182784 727 1472 727 C 1427.817216 727 1392 712.8969712 1392 695.5 Z"/></g><g transform="translate(-14,-14) scale(1,1)"><path fill="none" stroke="#000000" d="M 1392 695.5 C 1392 678.1030288 1427.817216 664 1472 664 C 1516.182784 664 1552 678.1030288 1552 695.5 C 1552 712.8969712 1516.182784 727 1472 727 C 1427.817216 727 1392 712.8969712 1392 695.5 Z" stroke-miterlimit="10"/></g><g transform="translate(-14,-14) scale(1,1)"><g><path fill="none" stroke="none"/><text fill="#000000" stroke="none" font-family="Arial" font-size="13px" font-style="normal" font-weight="bold" text-decoration="none" x="1420" y="702.5">动态生成爬虫脚本</text></g></g><g transform="translate(-14,-14) scale(1,1)"><path fill="none" stroke="#000000" d="M 1337 629 L 1406 663" stroke-miterlimit="10" stroke-dasharray="3"/></g><g transform="translate(-14,-14) scale(1,1)"><path fill="none" stroke="#000000" d="M 1395.0233256184476 662.2840254743551 L 1406 663 L 1398.744589552168 654.7320486676874" stroke-miterlimit="10"/></g><g transform="translate(-14,-14) scale(1,1)"><path fill="none" stroke="#000000" d="M 977 476 L 1199 568" stroke-miterlimit="10"/></g><g transform="translate(-14,-14) scale(1,1)"><path fill="none" stroke="#000000" d="M 1188.0000001616274 567.9981143165841 L 1199 568 L 1191.2231589007663 560.2204921417052" stroke-miterlimit="10"/></g><g transform="translate(-14,-14) scale(1,1)"><path fill="none" stroke="#000000" d="M 982 964 L 1211 825" stroke-miterlimit="10"/></g><g transform="translate(-14,-14) scale(1,1)"><path fill="none" stroke="#000000" d="M 1204.49670901842 833.8717082012936 L 1211 825 L 1200.1282338170524 826.6747238767384" stroke-miterlimit="10"/></g><g transform="translate(-14,-14) scale(1,1)"><path fill="none" stroke="#000000" d="M 982 993 L 1199 986" stroke-miterlimit="10"/></g><g transform="translate(-14,-14) scale(1,1)"><path fill="none" stroke="#000000" d="M 1188.9783288709207 990.5349870761203 L 1199 986 L 1188.7068882716885 982.1203284999245" stroke-miterlimit="10"/></g><g transform="translate(-14,-14) scale(1,1)"><path fill="none" stroke="#000000" d="M 982 1022 L 1200 1135" stroke-miterlimit="10"/></g><g transform="translate(-14,-14) scale(1,1)"><path fill="none" stroke="#000000" d="M 1189.0402001555872 1134.0604323492123 L 1200 1135 L 1192.9146258668238 1126.5858765523128" stroke-miterlimit="10"/></g><g transform="translate(-14,-14) scale(1,1)"><path fill="none" stroke="#000000" d="M 977 433 L 1191 334" stroke-miterlimit="10"/></g><g transform="translate(-14,-14) scale(1,1)"><path fill="none" stroke="#000000" d="M 1183.5439206003516 342.0874520082743 L 1191 334 L 1180.0090635378717 334.44644785301483" stroke-miterlimit="10"/></g><g transform="translate(-14,-14) scale(1,1)"><path fill="none" stroke="#000000" d="M 1444 176 L 1318 263" stroke-miterlimit="10" stroke-dasharray="3"/></g><g transform="translate(-14,-14) scale(1,1)"><path fill="none" stroke="#000000" d="M 1323.9710247298065 253.76166337071228 L 1318 263 L 1328.7546425545322 260.6896615996253" stroke-miterlimit="10"/></g><g transform="translate(-14,-14) scale(1,1)"><g><path fill="none" stroke="none"/><text fill="#000000" stroke="none" font-family="Arial" font-size="13px" font-style="normal" font-weight="normal" text-decoration="none" x="1371.5" y="249.5">«extend»</text></g></g><g transform="translate(-14,-14) scale(1,1)"><path fill="none" stroke="#000000" d="M 1431 297 L 1337 299" stroke-miterlimit="10" stroke-dasharray="3"/></g><g transform="translate(-14,-14) scale(1,1)"><path fill="none" stroke="#000000" d="M 1347.0708314078774 294.5752565323953 L 1337 299 L 1347.2499192916507 302.9923870697424" stroke-miterlimit="10"/></g><g transform="translate(-14,-14) scale(1,1)"><g><path fill="none" stroke="none"/><text fill="#000000" stroke="none" font-family="Arial" font-size="13px" font-style="normal" font-weight="normal" text-decoration="none" x="1357.5" y="333.5">«extend»</text></g></g><g transform="translate(-14,-14) scale(1,1)"><path fill="none" stroke="#000000" d="M 1431 393 L 1330 337" stroke-miterlimit="10" stroke-dasharray="3"/></g><g transform="translate(-14,-14) scale(1,1)"><path fill="none" stroke="#000000" d="M 1340.9291509041852 338.2464591904854 L 1330 337 L 1336.846696970896 345.609456463025" stroke-miterlimit="10"/></g><g transform="translate(-14,-14) scale(1,1)"><g><path fill="none" stroke="none"/><text fill="#000000" stroke="none" font-family="Arial" font-size="13px" font-style="normal" font-weight="normal" text-decoration="none" x="1338.5" y="397.5">«extend»</text></g></g></g></svg>